<svg width="44" height="44" viewBox="0 0 44 44" fill="none" xmlns="http://www.w3.org/2000/svg">
<path d="M43.7189 9.97333C43.6252 9.3785 43.353 8.82619 42.9383 8.38963C42.5235 7.95307 41.9859 7.65289 41.3967 7.52888L34.2222 5.95221C33.4528 5.78442 32.6564 5.78379 31.8868 5.95037C31.1171 6.11695 30.3922 6.44685 29.7611 6.91777L8.55555 22.3667L2.61555 22.1222C2.13805 22.1051 1.6673 22.2389 1.27016 22.5046C0.873029 22.7703 0.569703 23.1543 0.403268 23.6022C0.236834 24.0501 0.215752 24.5391 0.343018 24.9996C0.470284 25.4602 0.739426 25.8689 1.11222 26.1678L7.22333 30.9711C7.95666 31.8633 8.44555 31.6922 20.5822 25.08L21.7189 36.5933C21.7378 36.9074 21.8455 37.2097 22.0294 37.465C22.2133 37.7203 22.4659 37.9181 22.7578 38.0356C22.9678 38.1186 23.1919 38.1601 23.4178 38.1578C23.8723 38.1439 24.3065 37.9659 24.64 37.6567L27.5611 34.9922C27.852 34.7227 28.049 34.3673 28.1233 33.9778L30.8 19.4333C35.1633 16.9889 39.2944 14.6911 42.24 13.0167C42.767 12.7202 43.1909 12.27 43.4552 11.7262C43.7195 11.1824 43.8115 10.5708 43.7189 9.97333ZM41.03 10.89C37.9744 12.6255 33.6967 15.0578 29.1011 17.5755L28.6 17.8567L25.7522 33.3422L23.9556 34.98L22.6111 21.1689L20.9856 22C12.2222 26.8889 9.30111 28.3067 8.29888 28.7467L3.04333 24.5789L9.25222 24.8478L31.2522 8.88555C31.598 8.62702 31.9945 8.44439 32.4157 8.34962C32.837 8.25484 33.2735 8.25005 33.6967 8.33555L40.8467 9.87555C40.9568 9.89552 41.0578 9.95017 41.1347 10.0315C41.2117 10.1129 41.2606 10.2167 41.2744 10.3278C41.2996 10.4353 41.2894 10.5481 41.2454 10.6494C41.2013 10.7507 41.1258 10.835 41.03 10.89Z" fill="white"/>
<path d="M8.55554 15.3267L12.9067 16.5489L14.9111 15.0944L10.0222 13.6767L12.2222 12.3322L18.9078 12.1367L21.7189 10.0956L12.2222 10.3889C11.9228 10.3727 11.6253 10.4449 11.3667 10.5967L8.15221 12.4667C7.88646 12.6241 7.67326 12.8567 7.53948 13.1351C7.4057 13.4135 7.35733 13.7253 7.40046 14.0311C7.4436 14.337 7.5763 14.6232 7.78186 14.8538C7.98741 15.0843 8.25662 15.2489 8.55554 15.3267Z" fill="white"/>
</svg>
