<svg width="25" height="25" viewBox="0 0 25 25" fill="none" xmlns="http://www.w3.org/2000/svg">
<path d="M18.3471 16.1623C19.5827 14.4802 20.3125 12.4034 20.3125 10.1562C20.3125 4.54711 15.7654 0 10.1562 0C4.54711 0 0 4.54711 0 10.1562C0 15.7654 4.54711 20.3125 10.1562 20.3125C12.404 20.3125 14.4813 19.5823 16.1637 18.3461L16.1623 18.3471C16.2084 18.4096 16.2597 18.4694 16.3163 18.526L22.3326 24.5424C22.9428 25.1525 23.9322 25.1525 24.5424 24.5424C25.1525 23.9322 25.1525 22.9428 24.5424 22.3326L18.526 16.3163C18.4694 16.2597 18.4096 16.2084 18.3471 16.1623ZM18.75 10.1562C18.75 14.9024 14.9024 18.75 10.1562 18.75C5.41005 18.75 1.5625 14.9024 1.5625 10.1562C1.5625 5.41005 5.41005 1.5625 10.1562 1.5625C14.9024 1.5625 18.75 5.41005 18.75 10.1562Z" fill="#6D6D6D" fill-opacity="0.5"/>
</svg>
